<?xml version="1.0" encoding="utf-8"?>
<!-- Generator: Adobe Illustrator 17.0.0, SVG Export Plug-In . SVG Version: 6.00 Build 0)  -->
<!DOCTYPE svg PUBLIC "-//W3C//DTD SVG 1.1//EN" "http://www.w3.org/Graphics/SVG/1.1/DTD/svg11.dtd">
<svg version="1.1" id="Layer_1" xmlns="http://www.w3.org/2000/svg" xmlns:xlink="http://www.w3.org/1999/xlink" x="0px" y="0px"
	 width="98px" height="97.333px" viewBox="0 0 98 97.333" enable-background="new 0 0 98 97.333" xml:space="preserve">
<path fill="#999999" d="M49.208,94.375c-25.089,0-45.5-20.411-45.5-45.5s20.411-45.5,45.5-45.5s45.5,20.411,45.5,45.5
	S74.297,94.375,49.208,94.375z M49.208,7.375c-22.883,0-41.5,18.617-41.5,41.5s18.617,41.5,41.5,41.5s41.5-18.617,41.5-41.5
	S72.091,7.375,49.208,7.375z"/>
<path fill="#999999" d="M62.821,50.662l1.356-10.497H53.781v-6.7c0-3.038,0.84-5.108,5.197-5.108l5.557-0.003v-9.387
	c-0.957-0.126-4.255-0.412-8.093-0.412c-8.013,0-13.498,4.894-13.498,13.875v7.74H33.88v10.497h9.064v28.625h10.837v-28.63
	C53.781,50.662,62.821,50.662,62.821,50.662z"/>
</svg>
